PathFileType	4	(X/Y/Z)	C:/Users/beibeiliu/ov580/test_trc/User3\sequence.6_training_dense_left.trc
DataRate	CameraRate	NumFrames	NumMarkers	Units	OrigDataRate	OrigDataStartFrame	OrigNumFrames
120	120	23	19	mm	120	27	107
Frame#	Time	ThumbCMC			ThumbMCP			ThumbIP			ThumbTip			IndexMCP			IndexPIP			IndexTip			MiddleMCP			MiddlePIP			MiddleTip			RingMCP			RingPIP			RingTip			PinkyMCP			PinkyPIP			PinkyTip			BackHand1			BackHand2			BackHand3	
		X0	Y0	Z0	X1	Y1	Z1	X2	Y2	Z2	X3	Y3	Z3	X4	Y4	Z4	X5	Y5	Z5	X6	Y6	Z6	X7	Y7	Z7	X8	Y8	Z8	X9	Y9	Z9	X10	Y10	Z10	X11	Y11	Z11	X12	Y12	Z12	X13	Y13	Z13	X14	Y14	Z14	X15	Y15	Z15	X16	Y16	Z16	X17	Y17	Z17	X18	Y18	Z18	
26	0.216667	-151.159	-34.7219	10.9021	-139.197	-55.1292	-16.1708	-149.305	-69.114	-41.3499	-173.849	-75.8241	-47.0393	-162.133	-34.5396	-59.6987	-161.639	-67.0233	-57.3331	-161.909	-56.6606	-26.3242	-186.967	-45.742	-62.1247	-175.735	-72.6249	-51.6129	-177.253	-56.3277	-16.0762	-199.01	-51.9068	-53.0633	-191.407	-76.3763	-34.6506	-187.255	-55.1392	-7.71616	-217.945	-55.959	-40.8717	-201.687	-72.9786	-24.5915	-201.325	-56.7289	-0.488245	-213.892	-11.7751	-13.0957	-215.372	-9.48698	22.8676	-179.265	-6.30725	4.55987	
27	0.225	-154.459	-34.7357	11.8645	-137.299	-55.892	-13.0575	-146.549	-70.743	-44.155	-173.359	-79.0187	-51.8933	-166.016	-34.8972	-58.7586	-157.616	-68.1343	-54.8707	-164.378	-56.6321	-25.3265	-182.444	-45.8834	-62.4017	-179.418	-74.8404	-50.1118	-176.762	-52.8322	-13.8859	-202.867	-51.5255	-51.7514	-193.436	-76.3116	-33.2095	-190.455	-59.1092	-7.75216	-219.235	-56.6468	-41.2425	-204.233	-73.995	-27.7827	-201.899	-56.17	-2.2804	-208.788	-11.5315	-10.663	-213.996	-11.4227	22.3748	-180.2	-6.63405	2.37151	
28	0.233333	-149.847	-34.374	10.1899	-139.788	-54.2885	-11.3679	-146.085	-70.484	-39.4685	-169.398	-78.5263	-48.2167	-163.945	-36.9409	-60.8233	-159.979	-67.4203	-56.64	-164.339	-52.5824	-23.2402	-181.801	-42.3688	-60.2444	-175.657	-74.7242	-49.2584	-178.645	-57.9045	-17.2202	-199.389	-53.5015	-51.7424	-189.86	-76.8028	-34.2883	-186.947	-59.0473	-8.4707	-215.202	-54.5925	-41.386	-203.653	-74.8008	-23.8862	-201.45	-55.6661	-0.312661	-212.133	-10.5602	-14.0642	-211.215	-9.57055	23.3018	-179.249	-4.73686	5.17208	
29	0.241667	-151.078	-35.4672	14.2539	-140.768	-54.1214	-13.0224	-140.997	-72.2881	-39.7144	-168.93	-81.4445	-50.6004	-164.929	-35.4337	-59.1284	-157.346	-67.7243	-56.2417	-158.823	-52.7806	-23.9506	-185.39	-45.1389	-62.1004	-177.025	-74.6575	-50.4545	-177.02	-54.1103	-14.6368	-198.861	-52.5848	-51.0037	-191.402	-76.4723	-34.8961	-190.623	-59.1882	-7.2293	-213.229	-54.6338	-40.3125	-201.826	-75.3658	-23.5343	-199.809	-54.9969	-1.21808	-207.172	-10.8281	-9.51956	-209.705	-11.4529	20.6604	-177.346	-5.37405	6.05816	
30	0.25	-154.417	-34.9346	10.5018	-138.19	-55.0064	-15.165	-146.012	-70.8815	-36.8072	-171.509	-78.9925	-48.6464	-160.825	-37.8351	-62.1105	-159.929	-67.3125	-57.9341	-162.931	-53.2972	-23.365	-186.148	-43.1473	-59.8299	-179.044	-75.1937	-50.3435	-179.798	-57.9367	-16.7048	-199.908	-53.8099	-52.3222	-194.486	-77.2321	-32.7306	-186.513	-57.0742	-8.33743	-214.807	-57.4879	-40.5738	-204.91	-75.7094	-24.7627	-201.236	-53.7665	1.48617	-212.72	-10.0869	-12.5917	-212.621	-11.2703	21.9198	-179.889	-5.29752	4.94748	
31	0.258333	-152.68	-34.0099	12.9943	-136.931	-55.9325	-14.2405	-145.767	-69.7121	-37.2638	-169.719	-80.7407	-51.9774	-164.203	-36.7239	-61.8965	-156.545	-65.8188	-57.7353	-158.994	-54.2796	-24.8757	-182.853	-45.0923	-62.2329	-176.501	-73.2628	-49.6419	-176.239	-54.9913	-14.3048	-202.651	-51.283	-49.7783	-193.476	-75.4869	-37.3961	-188.235	-57.2401	-7.99407	-218.318	-54.6726	-39.3049	-205.582	-75.946	-22.6455	-202.392	-58.3484	-0.731782	-210.965	-9.05585	-10.832	-209.715	-10.8569	23.285	-174.884	-5.49683	4.31288	
32	0.266667	-153.413	-33.1205	11.7178	-139.407	-53.4519	-12.9286	-145.091	-71.2204	-39.1354	-172.13	-77.9099	-48.4263	-163.145	-31.4035	-58.6421	-159.085	-64.5006	-57.2696	-162.419	-54.6608	-25.2791	-186.562	-41.8374	-59.7139	-178.411	-73.1294	-51.9497	-177.266	-55.2862	-15.8585	-200.847	-49.4255	-50.9101	-194.894	-75.8893	-37.6781	-190.24	-58.6847	-8.55517	-219.025	-56.7252	-39.0749	-202.57	-73.6065	-24.4261	-201.982	-53.689	0.0593744	-213.498	-9.32236	-11.4564	-211.205	-10.773	23.4303	-182.601	-6.40903	5.79023	
33	0.275	-151.079	-30.8791	12.8372	-139.433	-52.6889	-14.9341	-149.232	-70.5053	-42.6958	-172.961	-77.4456	-47.3771	-168.713	-32.489	-58.6536	-162.521	-64.2681	-57.2054	-163.689	-53.441	-24.9744	-185.38	-42.9235	-60.8944	-178.905	-71.7475	-51.6342	-178.074	-56.2916	-16.2092	-200.844	-50.931	-50.8519	-194.834	-74.4279	-36.6671	-190.979	-55.2921	-7.45828	-217.91	-59.2244	-39.9223	-202.99	-72.2012	-22.8006	-204.084	-55.9335	2.46322	-211.249	-7.97531	-11.3797	-212.654	-8.41777	19.3979	-182.953	-2.64568	4.2455	
34	0.283333	-154.01	-30.4579	13.0172	-139.291	-53.3636	-13.0909	-148.665	-68.9859	-38.2701	-175.379	-75.4217	-46.45	-166.792	-30.5216	-58.1123	-162.629	-63.9083	-53.7683	-164.828	-55.6894	-25.372	-185.46	-42.2691	-62.1122	-179.718	-71.1906	-49.0298	-179.965	-50.7975	-14.5519	-204.447	-49.1425	-50.8717	-191.771	-74.0956	-34.9997	-190.906	-53.7025	-7.08118	-220.82	-53.4354	-38.1605	-203.186	-72.1463	-22.232	-201.432	-52.3234	0.503604	-211.858	-7.38945	-10.9694	-214.134	-8.31952	23.6313	-184.488	-2.69355	4.40182	
35	0.291667	-152.279	-30.8733	14.8915	-141.363	-51.1753	-15.7796	-149.941	-66.2623	-38.2112	-175.476	-73.9547	-45.8396	-164.842	-29.3097	-59.7836	-157.403	-62.1898	-53.9894	-162.118	-53.9106	-25.7058	-188.631	-41.5778	-62.1067	-177.486	-68.9	-49.7885	-177.433	-51.3552	-14.7052	-204.438	-48.0617	-50.9185	-192.811	-72.9579	-34.2766	-189.582	-54.7141	-8.72154	-217.696	-55.5988	-41.5444	-202.73	-71.0104	-22.6392	-204.306	-53.971	-0.270707	-214.222	-5.89898	-12.5967	-215.656	-6.38364	21.8492	-183.083	-3.43177	6.67391	
36	0.3	-152.003	-29.7637	14.7614	-142.192	-49.2987	-14.8192	-148.892	-64.7677	-38.0739	-173.923	-75.6836	-51.8232	-168.981	-29.0443	-58.8753	-162.184	-59.586	-59.3773	-164.994	-53.7326	-26.0139	-187.422	-36.9479	-60.6977	-176.726	-67.037	-53.9176	-181.152	-53.8267	-16.5066	-204.687	-44.5514	-49.899	-194.439	-70.7816	-38.9446	-188.653	-50.6744	-8.20256	-215.766	-53.0359	-40.8751	-202.534	-68.7065	-25.4967	-204.53	-50.9195	0.294288	-216.203	-7.08924	-8.37028	-215.05	-6.01029	21.5921	-183.462	-2.77407	7.04209	
37	0.308333	-153.407	-29.871	13.4814	-141.52	-48.128	-15.5495	-146.86	-63.5074	-37.7001	-170.771	-73.7699	-52.9716	-167.283	-29.5742	-60.9646	-160.443	-58.9306	-57.2144	-160.921	-50.1808	-25.3298	-188.509	-34.1177	-58.9744	-179.341	-65.4337	-53.9408	-181.786	-53.5387	-17.7403	-205.205	-43.1341	-50.1639	-191.696	-69.5599	-36.547	-192.434	-50.0822	-6.71704	-220.537	-47.7202	-40.3296	-206.483	-69.4753	-26.5776	-200.711	-54.1153	-2.9189	-210.386	-5.17464	-5.53623	-217.197	-6.45969	24.0613	-178.667	-0.737799	6.72481	
38	0.316667	-155.045	-28.6101	14.5868	-138.146	-48.5769	-13.0475	-144.17	-62.7037	-40.4247	-168.441	-70.701	-49.5021	-165.273	-23.6279	-57.3945	-156.032	-55.967	-57.1902	-162.707	-49.1878	-25.4942	-182.759	-30.8418	-59.7004	-178.155	-63.6059	-54.0348	-181.426	-49.9923	-15.8088	-200.257	-41.2744	-51.6623	-192.796	-68.1348	-39.0814	-190.504	-52.3366	-9.25855	-216.367	-47.5026	-41.1902	-206.613	-68.5535	-27.4815	-204.226	-49.4051	0.397538	-213.015	-5.85209	-5.81902	-211.454	-5.45361	23.9331	-178.085	1.00455	8.87996	
39	0.325	-156.122	-27.0113	14.7027	-141.939	-44.4835	-10.5193	-145.962	-59.6466	-42.181	-173.65	-67.4529	-53.3541	-165.783	-24.6962	-60.7485	-157.977	-52.5628	-60.5246	-161.121	-45.1101	-25.2997	-187.165	-32.2037	-62.2251	-178.569	-61.7473	-53.3193	-180.99	-51.8722	-18.9479	-200.094	-38.2869	-51.7664	-193.527	-65.6284	-38.9473	-192.414	-48.4907	-8.35544	-216.602	-47.944	-42.7236	-204.745	-66.1259	-27.2908	-204.351	-46.555	-2.80236	-210.902	-1.83096	-6.25198	-214.903	-6.05742	23.9422	-178.226	0.98732	11.1662	
40	0.333333	-150.698	-25.5777	13.3281	-140.954	-41.7256	-14.4907	-144.251	-55.6135	-43.0347	-170.627	-64.877	-55.3379	-167.29	-20.7126	-61.8296	-158.015	-49.4042	-59.5887	-163.32	-44.7081	-27.9326	-186.697	-28.4195	-62.1221	-178.21	-58.2887	-56.9564	-175.859	-47.0603	-18.5344	-203.199	-37.0929	-52.6579	-193.247	-63.8264	-41.7021	-189.178	-45.517	-10.6713	-216.578	-41.686	-42.8602	-206.135	-64.4848	-29.3429	-201.135	-47.2394	-3.94039	-215.429	-1.39407	-9.64633	-214.805	-4.20896	24.1847	-182.154	3.63939	10.167	
41	0.341667	-151.068	-23.5069	14.5381	-141.067	-40.7476	-10.6054	-144.09	-54.9068	-44.8717	-171.215	-60.4329	-53.5229	-164.933	-16.4467	-58.8919	-158.061	-46.6439	-62.8443	-163.551	-44.1713	-29.7652	-186.767	-26.7275	-63.136	-177.454	-56.8159	-57.3261	-181.493	-46.8226	-19.1329	-204.614	-34.5837	-52.89	-191.84	-61.056	-42.8619	-188.024	-46.1384	-12.6161	-219.315	-43.2989	-43.9243	-205.043	-62.3831	-29.18	-204.759	-44.0461	-1.86762	-213.169	0.0419975	-7.81959	-212.147	-3.3357	24.0347	-179.732	3.79333	11.9744	
42	0.35	-153.593	-24.4636	11.9632	-137.306	-40.4378	-13.3291	-148.168	-52.0468	-43.2575	-169.544	-59.4464	-51.2939	-162.304	-14.4205	-59.098	-157.705	-47.2154	-59.7263	-162.016	-39.1071	-26.7802	-185.283	-26.6969	-63.65	-179.286	-56.3573	-57.0085	-177.641	-42.8069	-17.508	-203.73	-33.8217	-52.2718	-196.386	-61.3624	-40.2757	-189.555	-45.73	-12.0411	-218.902	-42.0255	-43.6773	-204.152	-61.4713	-29.9562	-201.999	-45.1295	-4.02631	-212.306	0.710677	-5.29768	-213.665	-3.99501	25.2982	-180.782	3.30214	11.9345	
43	0.358333	-152.03	-23.9807	13.5266	-141.093	-38.8122	-13.9074	-144.582	-51.7127	-40.6879	-172.198	-59.2334	-54.0876	-166.9	-15.6461	-60.7742	-156.096	-45.3811	-63.5461	-161.365	-42.6631	-29.7703	-187.29	-22.7901	-61.2858	-176.024	-55.5532	-56.7569	-179.436	-44.3622	-20.7144	-201.231	-34.3389	-54.4039	-195.212	-59.9988	-44.2219	-192.888	-45.2768	-11.2104	-214.936	-39.8066	-45.2076	-205.13	-60.641	-31.32	-202.348	-47.3259	-5.36485	-210.324	2.61034	-8.2588	-216.409	-2.78847	25.1501	-178.527	3.9949	12.4287	
44	0.366667	-156.482	-22.9617	15.0298	-138.66	-39.3275	-14.4938	-144.651	-50.9331	-46.9145	-171.362	-55.7719	-52.758	-164.24	-13.0623	-59.0427	-158.636	-43.9761	-64.5917	-163.67	-39.305	-29.2728	-184.398	-19.7322	-60.714	-179.384	-52.2258	-60.4044	-178.758	-43.1255	-20.0291	-202.802	-33.525	-55.0548	-196.23	-58.6307	-44.9705	-193.799	-43.8163	-11.7871	-218.145	-35.0621	-43.3391	-205.878	-59.2438	-29.4441	-201.523	-41.3449	-4.71271	-211.191	3.08574	-6.43082	-211.169	-0.329441	24.1278	-177.603	7.32456	8.82687	
45	0.375	-155.491	-22.2417	12.9581	-141.815	-38.0004	-16.4523	-147.708	-49.847	-41.2887	-168.401	-57.0405	-53.8551	-164.7	-11.8874	-59.9186	-158.181	-42.852	-61.7991	-162.34	-37.5737	-29.6045	-184.728	-21.0407	-62.9347	-181.857	-52.6251	-56.0192	-180.864	-42.9902	-20.0805	-200.46	-27.976	-54.5661	-195.906	-56.1461	-45.8275	-193.482	-40.6998	-11.8241	-217.86	-37.3808	-45.7047	-209.02	-58.2286	-30.9632	-204.431	-44.6535	-5.55798	-215.745	4.21328	-5.98154	-212.933	2.37224	26.4883	-180.119	7.03702	11.0967	
46	0.383333	-154.909	-19.9208	11.1587	-140.577	-37.733	-14.964	-147.551	-48.5651	-42.1772	-174.55	-53.9278	-52.2939	-165.855	-9.57327	-58.9572	-161.217	-41.0716	-64.5662	-166.876	-37.8971	-30.1266	-184.385	-18.6765	-63.1333	-179.172	-51.9554	-55.9326	-182.129	-41.8435	-20.2246	-207.618	-27.2611	-54.0416	-196.128	-55.4811	-45.5675	-196.836	-43.2964	-12.9215	-219.249	-36.4103	-46.2063	-208.614	-56.0047	-35.2693	-206.558	-43.6845	-7.70996	-212.887	6.65168	-7.362	-215.866	1.38237	26.3768	-180.357	7.78814	10.8192	
47	0.391667	-155.082	-19.8976	12.8758	-145.915	-34.9815	-14.5788	-146.365	-47.8318	-46.0115	-171.665	-55.8033	-56.971	-167.01	-9.97062	-61.3429	-159.736	-38.2564	-64.0338	-162.643	-36.2575	-28.8092	-188.06	-15.5381	-60.9498	-182.894	-49.5716	-58.6891	-181.108	-40.2331	-19.6199	-206.015	-29.1657	-55.4143	-196.631	-53.775	-45.4269	-195.74	-41.3877	-12.0948	-219.866	-32.3299	-44.0349	-209.089	-55.327	-32.2865	-206.391	-40.1258	-5.94229	-215.445	4.69876	-4.20997	-214.997	4.19489	23.8145	-181.91	10.2352	11.2462	
48	0.4	-156.725	-18.4661	15.7976	-145.19	-33.8661	-13.1789	-144.876	-46.435	-44.9885	-173.159	-52.0278	-53.7779	-167.159	-7.14493	-59.8069	-161.888	-38.7309	-63.1807	-164.057	-36.204	-29.1695	-189.534	-15.3471	-60.8546	-178.172	-47.8384	-57.957	-178.763	-37.2232	-18.9185	-203.501	-24.2577	-52.3636	-199.384	-54.1833	-42.9495	-191.102	-37.5984	-13.1456	-220.398	-35.6541	-45.4334	-206.125	-54.5154	-30.7894	-205.044	-42.2516	-6.8138	-217.46	6.39575	-4.01645	-217.066	2.9755	22.8743	-186.556	10.0544	12.5637	
